<svg xmlns="http://www.w3.org/2000/svg" viewBox="0 0 200 200" role="img" aria-label="Dominada: colgado de la barra con los brazos estirados y subiendo hasta la barbilla (2 de 2)">
  <g transform="translate(-19.5 -21.9) scale(1.2)">
  <path d="M 70 26 L 132 26" fill="none" stroke="#2a2c1f" stroke-width="6" stroke-linecap="round" vector-effect="non-scaling-stroke"/>
  <path d="M 103.9 68.3 L 122.8 49.1 L 117.2 42.9 L 96.1 59.7 Z" fill="#75765f"/>
  <path d="M 124.1 45 L 119.1 29.2 L 112.9 30.8 L 115.9 47 Z" fill="#75765f"/>
  <circle cx="100" cy="64" r="5.8" fill="#75765f"/>
  <circle cx="120" cy="46" r="4.2" fill="#75765f"/>
  <circle cx="116" cy="30" r="3.2" fill="#75765f"/>
  <path d="M 91.9 111 L 98.2 144.7 L 109.8 143.3 L 108.1 109 Z" fill="#75765f"/>
  <path d="M 101.1 149 L 115.9 155.6 L 120.1 148.4 L 106.9 139 Z" fill="#75765f"/>
  <circle cx="100" cy="110" r="8.2" fill="#75765f"/>
  <circle cx="104" cy="144" r="5.8" fill="#75765f"/>
  <circle cx="118" cy="152" r="4.2" fill="#75765f"/>
  <path d="M 94.5 56 L 87.5 67.9 L 112.5 67.9 L 105.5 56 Z" fill="#f2efe3"/>
  <path d="M 87.5 67.9 L 91 110 L 109 110 L 112.5 67.9 Z" fill="#f2efe3"/>
  <circle cx="100" cy="56" r="5.5" fill="#f2efe3"/>
  <circle cx="100" cy="67.9" r="12.5" fill="#f2efe3"/>
  <circle cx="100" cy="110" r="9" fill="#f2efe3"/>
  <path d="M 94 42 L 94.5 56 L 105.5 56 L 106 42 Z" fill="#f2efe3"/>
  <circle cx="100" cy="42" r="6" fill="#f2efe3"/>
  <circle cx="100" cy="56" r="5.5" fill="#f2efe3"/>
  <circle cx="100" cy="42" r="12.5" fill="#f2efe3"/>
  <path d="M 103.9 59.7 L 82.8 42.9 L 77.2 49.1 L 96.1 68.3 Z" fill="#f2efe3"/>
  <path d="M 83.9 47.5 L 89 31.1 L 83 28.9 L 76.1 44.5 Z" fill="#f2efe3"/>
  <circle cx="100" cy="64" r="5.8" fill="#f2efe3"/>
  <circle cx="80" cy="46" r="4.2" fill="#f2efe3"/>
  <circle cx="86" cy="30" r="3.2" fill="#f2efe3"/>
  <path d="M 91.9 109 L 90.2 143.3 L 101.8 144.7 L 108.1 111 Z" fill="#f2efe3"/>
  <path d="M 92.6 148.7 L 107.6 157.4 L 112.4 150.6 L 99.4 139.3 Z" fill="#f2efe3"/>
  <circle cx="100" cy="110" r="8.2" fill="#f2efe3"/>
  <circle cx="96" cy="144" r="5.8" fill="#f2efe3"/>
  <circle cx="110" cy="154" r="4.2" fill="#f2efe3"/>
  </g>
</svg>
