<svg xmlns="http://www.w3.org/2000/svg" viewBox="0 0 200 200" role="img" aria-label="Movilidad de hombros: círculos amplios con los brazos (1 de 2)">
  <g transform="translate(-9.5 -8.4) scale(1.1)">
  <path d="M 28 182 L 172 182" fill="none" stroke="#2a2c1f" stroke-width="5" stroke-linecap="round" vector-effect="non-scaling-stroke"/>
  <path d="M 87.5 52.2 L 65.6 55.8 L 66.4 64.2 L 88.5 63.8 Z" fill="#75765f"/>
  <path d="M 65.6 55.8 L 43.7 58.8 L 44.3 65.2 L 66.4 64.2 Z" fill="#75765f"/>
  <circle cx="88" cy="58" r="5.8" fill="#75765f"/>
  <circle cx="66" cy="60" r="4.2" fill="#75765f"/>
  <circle cx="44" cy="62" r="3.2" fill="#75765f"/>
  <path d="M 92.2 101.4 L 82.5 138.2 L 93.5 141.8 L 107.8 106.6 Z" fill="#75765f"/>
  <path d="M 82.2 140 L 83.8 176 L 92.2 176 L 93.8 140 Z" fill="#75765f"/>
  <path d="M 87 171.9 L 79.2 174.9 L 80.8 181.1 L 89 180.1 Z" fill="#75765f"/>
  <circle cx="100" cy="104" r="8.2" fill="#75765f"/>
  <circle cx="88" cy="140" r="5.8" fill="#75765f"/>
  <circle cx="88" cy="176" r="4.2" fill="#75765f"/>
  <circle cx="80" cy="178" r="3.2" fill="#75765f"/>
  <path d="M 94.5 48 L 87.5 60.3 L 112.5 60.3 L 105.5 48 Z" fill="#f2efe3"/>
  <path d="M 87.5 60.3 L 91 104 L 109 104 L 112.5 60.3 Z" fill="#f2efe3"/>
  <circle cx="100" cy="48" r="5.5" fill="#f2efe3"/>
  <circle cx="100" cy="60.3" r="12.5" fill="#f2efe3"/>
  <circle cx="100" cy="104" r="9" fill="#f2efe3"/>
  <path d="M 94 34 L 94.5 48 L 105.5 48 L 106 34 Z" fill="#f2efe3"/>
  <circle cx="100" cy="34" r="6" fill="#f2efe3"/>
  <circle cx="100" cy="48" r="5.5" fill="#f2efe3"/>
  <circle cx="100" cy="34" r="12.5" fill="#f2efe3"/>
  <path d="M 111.5 63.8 L 133.6 64.2 L 134.4 55.8 L 112.5 52.2 Z" fill="#f2efe3"/>
  <path d="M 133.6 64.2 L 155.7 65.2 L 156.3 58.8 L 134.4 55.8 Z" fill="#f2efe3"/>
  <circle cx="112" cy="58" r="5.8" fill="#f2efe3"/>
  <circle cx="134" cy="60" r="4.2" fill="#f2efe3"/>
  <circle cx="156" cy="62" r="3.2" fill="#f2efe3"/>
  <path d="M 92.2 106.6 L 106.5 141.8 L 117.5 138.2 L 107.8 101.4 Z" fill="#f2efe3"/>
  <path d="M 106.2 140 L 107.8 176 L 116.2 176 L 117.8 140 Z" fill="#f2efe3"/>
  <path d="M 111 180.1 L 119.2 181.1 L 120.8 174.9 L 113 171.9 Z" fill="#f2efe3"/>
  <circle cx="100" cy="104" r="8.2" fill="#f2efe3"/>
  <circle cx="112" cy="140" r="5.8" fill="#f2efe3"/>
  <circle cx="112" cy="176" r="4.2" fill="#f2efe3"/>
  <circle cx="120" cy="178" r="3.2" fill="#f2efe3"/>
  </g>
</svg>
