<svg xmlns="http://www.w3.org/2000/svg" viewBox="0 0 200 200" role="img" aria-label="Pájaro: tronco inclinado y brazos que se abren hacia los lados (2 de 2)">
  <g transform="translate(-27.6 -79.8) scale(1.5)">
  <path d="M 25 182 L 151 182" fill="none" stroke="#2a2c1f" stroke-width="5" stroke-linecap="round" vector-effect="non-scaling-stroke"/>
  <path d="M 78.8 90.6 L 59.4 100.1 L 62.6 107.9 L 83.2 101.4 Z" fill="#75765f"/>
  <path d="M 60.2 99.9 L 40.4 104.9 L 41.6 111.1 L 61.8 108.1 Z" fill="#75765f"/>
  <circle cx="81" cy="96" r="5.8" fill="#75765f"/>
  <circle cx="61" cy="104" r="4.2" fill="#75765f"/>
  <circle cx="41" cy="108" r="3.2" fill="#75765f"/>
  <path d="M 115.9 114.9 L 114.3 145.2 L 125.7 146.8 L 132.1 117.1 Z" fill="#75765f"/>
  <path d="M 114.2 145.6 L 113.8 175.7 L 122.2 176.3 L 125.8 146.4 Z" fill="#75765f"/>
  <path d="M 117.2 171.9 L 107.4 174.9 L 108.6 181.1 L 118.8 180.1 Z" fill="#75765f"/>
  <circle cx="124" cy="116" r="8.2" fill="#75765f"/>
  <circle cx="120" cy="146" r="5.8" fill="#75765f"/>
  <circle cx="118" cy="176" r="4.2" fill="#75765f"/>
  <circle cx="108" cy="178" r="3.2" fill="#75765f"/>
  <path d="M 79.1 92.7 L 84.7 104.3 L 97.8 83.1 L 84.9 83.3 Z" fill="#f2efe3"/>
  <path d="M 84.7 104.3 L 119.3 121.7 L 128.7 106.3 L 97.8 83.1 Z" fill="#f2efe3"/>
  <circle cx="82" cy="88" r="5.5" fill="#f2efe3"/>
  <circle cx="91.2" cy="93.7" r="12.5" fill="#f2efe3"/>
  <circle cx="124" cy="114" r="9" fill="#f2efe3"/>
  <path d="M 67.3 87.4 L 79.5 92.9 L 84.5 83.1 L 72.7 76.6 Z" fill="#f2efe3"/>
  <circle cx="70" cy="82" r="6" fill="#f2efe3"/>
  <circle cx="82" cy="88" r="5.5" fill="#f2efe3"/>
  <circle cx="70" cy="82" r="12.5" fill="#f2efe3"/>
  <path d="M 81.8 99.4 L 102.4 105.9 L 105.6 98.1 L 86.2 88.6 Z" fill="#f2efe3"/>
  <path d="M 103.2 106.1 L 123.4 109.1 L 124.6 102.9 L 104.8 97.9 Z" fill="#f2efe3"/>
  <circle cx="84" cy="94" r="5.8" fill="#f2efe3"/>
  <circle cx="104" cy="102" r="4.2" fill="#f2efe3"/>
  <circle cx="124" cy="106" r="3.2" fill="#f2efe3"/>
  <path d="M 115.8 114.5 L 120.2 146.4 L 131.8 145.6 L 132.2 113.5 Z" fill="#f2efe3"/>
  <path d="M 120.2 145.6 L 119.8 175.7 L 128.2 176.3 L 131.8 146.4 Z" fill="#f2efe3"/>
  <path d="M 123.2 180.1 L 134.4 181.1 L 135.6 174.9 L 124.8 171.9 Z" fill="#f2efe3"/>
  <circle cx="124" cy="114" r="8.2" fill="#f2efe3"/>
  <circle cx="126" cy="146" r="5.8" fill="#f2efe3"/>
  <circle cx="124" cy="176" r="4.2" fill="#f2efe3"/>
  <circle cx="135" cy="178" r="3.2" fill="#f2efe3"/>
  <path d="M 124 98.5 L 124 113.5" fill="none" stroke="#ff7e33" stroke-width="7" stroke-linecap="round" vector-effect="non-scaling-stroke"/><path d="M 41 100.5 L 41 115.5" fill="none" stroke="#ff7e33" stroke-width="7" stroke-linecap="round" vector-effect="non-scaling-stroke"/>
  </g>
</svg>
