<svg xmlns="http://www.w3.org/2000/svg" viewBox="0 0 200 200" role="img" aria-label="Puente de glúteo: tumbado con la cadera en el suelo y subiéndola hasta alinear el cuerpo (2 de 2)">
  <g transform="translate(-34.8 -127.6) scale(1.5)">
  <path d="M 20 182 L 166 182" fill="none" stroke="#2a2c1f" stroke-width="5" stroke-linecap="round" vector-effect="non-scaling-stroke"/>
  <path d="M 113.9 145.9 L 141.5 150.6 L 144.5 139.4 L 118.1 130.1 Z" fill="#75765f"/>
  <path d="M 137.2 145.7 L 142.8 178.5 L 151.2 177.5 L 148.8 144.3 Z" fill="#75765f"/>
  <circle cx="116" cy="138" r="8.2" fill="#75765f"/>
  <circle cx="143" cy="145" r="5.8" fill="#75765f"/>
  <circle cx="147" cy="178" r="4.2" fill="#75765f"/>
  <path d="M 64.4 167 L 79.3 167.5 L 68.5 145 L 59.6 157 Z" fill="#f2efe3"/>
  <path d="M 79.3 167.5 L 119.9 144.1 L 112.1 127.9 L 68.5 145 Z" fill="#f2efe3"/>
  <circle cx="62" cy="162" r="5.5" fill="#f2efe3"/>
  <circle cx="73.9" cy="156.3" r="12.5" fill="#f2efe3"/>
  <circle cx="116" cy="136" r="9" fill="#f2efe3"/>
  <path d="M 46.4 163.8 L 60.5 167.3 L 63.5 156.7 L 49.6 152.2 Z" fill="#f2efe3"/>
  <circle cx="48" cy="158" r="6" fill="#f2efe3"/>
  <circle cx="62" cy="162" r="5.5" fill="#f2efe3"/>
  <circle cx="48" cy="158" r="12.5" fill="#f2efe3"/>
  <path d="M 63.3 177.8 L 87.5 179.2 L 88.5 170.8 L 64.7 166.2 Z" fill="#f2efe3"/>
  <path d="M 87.8 179.2 L 111.9 179.2 L 112.1 172.8 L 88.2 170.8 Z" fill="#f2efe3"/>
  <circle cx="64" cy="172" r="5.8" fill="#f2efe3"/>
  <circle cx="88" cy="175" r="4.2" fill="#f2efe3"/>
  <circle cx="112" cy="176" r="3.2" fill="#f2efe3"/>
  <path d="M 114.9 144.1 L 145.2 145.7 L 146.8 134.3 L 117.1 127.9 Z" fill="#f2efe3"/>
  <path d="M 140.2 140.6 L 145.8 176.5 L 154.2 175.5 L 151.8 139.4 Z" fill="#f2efe3"/>
  <circle cx="116" cy="136" r="8.2" fill="#f2efe3"/>
  <circle cx="146" cy="140" r="5.8" fill="#f2efe3"/>
  <circle cx="150" cy="176" r="4.2" fill="#f2efe3"/>
  </g>
</svg>
